<?xml version="1.0" encoding="utf-8"?>
<!-- Generator: Adobe Illustrator 26.2.1, SVG Export Plug-In . SVG Version: 6.00 Build 0)  -->
<svg version="1.1" id="Layer_1" xmlns="http://www.w3.org/2000/svg" xmlns:xlink="http://www.w3.org/1999/xlink" x="0px" y="0px"
	 viewBox="0 0 200 70" style="enable-background:new 0 0 200 70;" xml:space="preserve">
<style type="text/css">
	.st0{fill-rule:evenodd;clip-rule:evenodd;fill:#FFFFFF;}
	.st1{fill-rule:evenodd;clip-rule:evenodd;fill:#22BFB4;}
	.st2{fill-rule:evenodd;clip-rule:evenodd;fill:#18A3C9;}
</style>
<g id="web端">
	<g id="编组-117" transform="translate(0.000000, -0.000100)">
		<path id="Fill-1" class="st0" d="M127.2,30.5h-5.3v8.1c0,1.2-0.3,2-0.8,2.6c-0.5,0.6-1.2,0.9-2.1,0.9c-0.9,0-1.6-0.3-2.1-0.9
			c-0.5-0.6-0.8-1.5-0.8-2.6V16.6c0-1.3,0.3-2.2,0.9-2.7s1.5-0.8,2.8-0.8h7.4c2.2,0,3.9,0.2,5.1,0.5c1.2,0.3,2.2,0.9,3,1.6
			c0.9,0.8,1.5,1.7,1.9,2.8c0.4,1.1,0.7,2.3,0.7,3.7c0,2.9-0.9,5.1-2.7,6.6C133.4,29.7,130.8,30.5,127.2,30.5 M125.8,17.4h-3.9v8.8
			h3.9c1.4,0,2.5-0.1,3.4-0.4c0.9-0.3,1.6-0.8,2.1-1.4c0.5-0.7,0.7-1.5,0.7-2.6c0-1.3-0.4-2.3-1.1-3.1
			C130.1,17.8,128.4,17.4,125.8,17.4"/>
		<path id="Fill-3" class="st0" d="M156,32.6h-10.4c0,1.2,0.3,2.3,0.7,3.2c0.5,0.9,1.1,1.6,1.9,2.1c0.8,0.5,1.7,0.7,2.6,0.7
			c0.6,0,1.2-0.1,1.7-0.2c0.5-0.2,1-0.4,1.5-0.7c0.5-0.3,0.9-0.7,1.4-1c0.4-0.4,1-0.9,1.6-1.5c0.3-0.2,0.7-0.4,1.2-0.4
			c0.5,0,1,0.2,1.3,0.5c0.3,0.3,0.5,0.7,0.5,1.3c0,0.5-0.2,1-0.6,1.7c-0.4,0.6-0.9,1.3-1.7,1.9c-0.8,0.6-1.7,1.1-2.9,1.5
			c-1.2,0.4-2.5,0.6-4,0.6c-3.4,0-6.1-1-8-2.9c-1.9-2-2.9-4.6-2.9-7.9c0-1.6,0.2-3,0.7-4.4c0.5-1.3,1.2-2.5,2.1-3.5
			c0.9-1,2-1.7,3.3-2.2c1.3-0.5,2.8-0.8,4.4-0.8c2.1,0,3.9,0.4,5.4,1.3c1.5,0.9,2.6,2,3.4,3.4c0.7,1.4,1.1,2.8,1.1,4.3
			c0,1.3-0.4,2.2-1.2,2.6C158.5,32.4,157.4,32.6,156,32.6 M145.6,29.6h9.7c-0.1-1.8-0.6-3.2-1.5-4.1c-0.9-0.9-2-1.4-3.4-1.4
			c-1.3,0-2.4,0.5-3.3,1.4C146.3,26.4,145.8,27.8,145.6,29.6"/>
		<path id="Fill-5" class="st0" d="M165.2,20.4h0.6v-2.7c0-0.9,0-1.5,0.1-2c0-0.5,0.2-0.9,0.4-1.3c0.2-0.4,0.5-0.7,0.9-0.9
			c0.4-0.2,0.8-0.3,1.3-0.3c0.7,0,1.3,0.3,1.8,0.8c0.4,0.3,0.6,0.8,0.7,1.2c0.1,0.5,0.1,1.2,0.1,2.1v3.1h2c0.8,0,1.3,0.2,1.7,0.5
			c0.4,0.4,0.6,0.8,0.6,1.4c0,0.7-0.3,1.2-0.8,1.5c-0.6,0.3-1.4,0.4-2.4,0.4h-1v10.3c0,0.8,0,1.5,0.1,1.9c0.1,0.4,0.2,0.8,0.5,1.1
			c0.3,0.3,0.7,0.4,1.2,0.4c0.3,0,0.7-0.1,1.3-0.2c0.5-0.1,1-0.2,1.2-0.2c0.4,0,0.8,0.2,1.2,0.5c0.3,0.3,0.5,0.8,0.5,1.3
			c0,0.9-0.5,1.5-1.4,2c-0.9,0.5-2.3,0.7-4,0.7c-1.7,0-2.9-0.3-3.8-0.8c-0.9-0.6-1.4-1.3-1.7-2.3c-0.3-1-0.4-2.3-0.4-4V24.2h-0.7
			c-0.8,0-1.4-0.2-1.8-0.5s-0.6-0.8-0.6-1.4c0-0.6,0.2-1,0.6-1.4C163.8,20.5,164.4,20.4,165.2,20.4"/>
		<path id="Fill-7" class="st0" d="M194,39.1c-1.3,1-2.5,1.8-3.7,2.3c-1.2,0.5-2.6,0.8-4.1,0.8c-1.4,0-2.6-0.3-3.6-0.8
			c-1-0.5-1.8-1.3-2.4-2.2s-0.8-1.9-0.8-3c0-1.5,0.5-2.7,1.4-3.7c0.9-1,2.2-1.7,3.8-2.1c0.3-0.1,1.2-0.3,2.5-0.5
			c1.3-0.3,2.5-0.5,3.4-0.8c1-0.2,2-0.5,3.1-0.8c-0.1-1.4-0.3-2.4-0.9-3.1c-0.5-0.7-1.5-1-3.1-1c-1.4,0-2.4,0.2-3.1,0.6
			c-0.7,0.4-1.3,0.9-1.8,1.7c-0.5,0.8-0.8,1.3-1,1.5c-0.2,0.2-0.6,0.4-1.3,0.4c-0.6,0-1.1-0.2-1.6-0.6c-0.4-0.4-0.7-0.9-0.7-1.5
			c0-0.9,0.3-1.8,1-2.7c0.7-0.9,1.7-1.6,3.1-2.2c1.4-0.6,3.2-0.9,5.3-0.9c2.3,0,4.2,0.3,5.5,0.8c1.3,0.6,2.3,1.4,2.8,2.6
			c0.6,1.2,0.8,2.8,0.8,4.8c0,1.2,0,2.3,0,3.2c0,0.9,0,1.8,0,2.9c0,1,0.2,2,0.5,3.1c0.3,1.1,0.5,1.8,0.5,2.1c0,0.5-0.3,1-0.8,1.5
			c-0.5,0.5-1.1,0.7-1.7,0.7c-0.5,0-1.1-0.3-1.6-0.8C195.1,40.8,194.6,40.1,194,39.1L194,39.1z M193.6,31.4
			c-0.8,0.3-1.9,0.6-3.4,0.9c-1.5,0.3-2.5,0.6-3.1,0.7c-0.6,0.2-1.1,0.4-1.6,0.9c-0.5,0.4-0.8,1-0.8,1.8c0,0.8,0.3,1.5,0.9,2.1
			c0.6,0.6,1.4,0.9,2.4,0.9c1.1,0,2-0.2,2.9-0.7c0.9-0.5,1.5-1.1,2-1.8c0.5-0.8,0.7-2.1,0.7-4V31.4z"/>
		<path id="Fill-9" class="st0" d="M118.3,49.5v5.8h7.3c0.6,0,1,0.1,1.2,0.2c0.2,0.2,0.3,0.4,0.3,0.7c0,0.3-0.1,0.5-0.2,0.7
			c-0.2,0.2-0.6,0.3-1.3,0.3h-7.3v6.1h8.3c0.7,0,1.1,0.1,1.3,0.2c0.2,0.2,0.3,0.4,0.3,0.7c0,0.3-0.1,0.5-0.3,0.7
			c-0.2,0.2-0.6,0.2-1.3,0.2h-8.7c-0.7,0-1.1,0-1.3-0.1c-0.2-0.1-0.4-0.3-0.4-0.5c-0.1-0.2-0.1-0.7-0.1-1V49.9
			c0-1.1,0.1-1.6,0.3-1.8c0.2-0.2,0.7-0.3,1.6-0.3h8.3c0.7,0,1.1,0.1,1.3,0.2c0.2,0.2,0.3,0.4,0.3,0.7c0,0.3-0.1,0.5-0.3,0.7
			c-0.2,0.2-0.6,0.2-1.3,0.2H118.3z"/>
		<path id="Fill-11" class="st0" d="M135.2,59.8l-3.2,4.5c-0.4,0.6-0.8,0.8-1.2,0.8c-0.3,0-0.5-0.1-0.7-0.3
			c-0.2-0.2-0.3-0.4-0.3-0.6c0-0.2,0.1-0.6,0.4-0.9l3.7-4.9l-3.3-4.3c-0.3-0.4-0.5-0.8-0.5-1c0-0.2,0.1-0.4,0.3-0.6
			c0.2-0.2,0.4-0.3,0.7-0.3c0.2,0,0.4,0.1,0.6,0.2s0.3,0.3,0.6,0.7l2.9,3.8l2.9-3.8c0.4-0.6,0.8-0.9,1.2-0.9c0.3,0,0.5,0.1,0.7,0.3
			c0.2,0.2,0.3,0.4,0.3,0.6c0,0.3-0.2,0.6-0.5,1.1l-3.2,4.2l3.6,4.9c0.4,0.5,0.5,0.8,0.5,1c0,0.2-0.1,0.5-0.3,0.6
			c-0.2,0.2-0.4,0.3-0.7,0.3c-0.4,0-0.8-0.3-1.2-0.9L135.2,59.8z"/>
		<path id="Fill-13" class="st0" d="M144.3,54.3c1.1-1.4,2.6-2.1,4.4-2.1c1.8,0,3.2,0.6,4.1,1.9c0.9,1.3,1.4,2.8,1.4,4.7
			c0,1.8-0.5,3.3-1.4,4.6c-0.9,1.2-2.3,1.8-4.1,1.8c-1.8,0-3.3-0.7-4.4-2.2v5.1c0,0.7-0.1,1.2-0.3,1.4c-0.2,0.2-0.4,0.3-0.8,0.3
			c-0.3,0-0.5-0.1-0.7-0.3s-0.3-0.7-0.3-1.4V53.8c0-0.7,0.1-1.1,0.2-1.3c0.2-0.2,0.4-0.3,0.8-0.3c0.7,0,1,0.5,1,1.4V54.3z
			 M152.1,58.7c0-1.6-0.4-2.8-1.1-3.7c-0.7-0.9-1.6-1.3-2.7-1.3c-1.2,0-2.1,0.4-2.8,1.2c-0.7,0.8-1.1,2-1.1,3.5
			c0,1.6,0.4,2.9,1.2,3.7c0.8,0.8,1.7,1.3,2.8,1.3c1.1,0,2-0.4,2.7-1.3S152.1,60.1,152.1,58.7L152.1,58.7z"/>
		<path id="Fill-15" class="st0" d="M155.9,63.4v-10c0-0.5,0.1-0.9,0.2-1.1c0.2-0.2,0.4-0.3,0.7-0.3c0.2,0,0.4,0.1,0.6,0.2
			c0.2,0.1,0.3,0.5,0.3,1.1v1c0.6-0.9,1.1-1.5,1.5-1.8c0.4-0.3,0.9-0.4,1.5-0.4c0.6,0,1.2,0.1,1.7,0.4c0.5,0.3,0.8,0.6,0.8,1
			c0,0.3-0.1,0.5-0.3,0.7c-0.2,0.2-0.4,0.3-0.5,0.3c-0.2,0-0.4-0.1-0.7-0.2c-0.3-0.1-0.7-0.2-1-0.2c-0.9,0-1.5,0.4-2,1.2
			c-0.4,0.8-0.6,2.2-0.6,4.1v4.5c0,0.8-0.3,1.2-1,1.2c-0.4,0-0.7-0.1-0.8-0.4C155.9,64.5,155.9,64.1,155.9,63.4"/>
		<path id="Fill-17" class="st0" d="M174.4,59h-7.4c0,1.5,0.4,2.6,1.1,3.4c0.7,0.8,1.6,1.2,2.8,1.2c0.9,0,1.6-0.2,2.1-0.6
			c0.5-0.4,0.9-0.9,1.4-1.7c0.3-0.4,0.6-0.6,0.9-0.6c0.2,0,0.4,0.1,0.6,0.2c0.2,0.2,0.2,0.3,0.2,0.5c0,0.6-0.4,1.3-1.3,2.2
			c-0.9,0.9-2.2,1.4-3.9,1.4c-1.9,0-3.3-0.6-4.4-1.8c-1-1.2-1.5-2.8-1.5-4.8c0-2,0.5-3.5,1.5-4.7c1-1.2,2.5-1.8,4.3-1.8
			c1.8,0,3.2,0.6,4.2,1.8c0.9,1.2,1.4,2.4,1.4,3.8c0,0.4-0.1,0.7-0.3,0.9C175.7,58.9,175.2,59,174.4,59 M167,57.6h7.1
			c-0.1-1.3-0.4-2.2-1-2.9c-0.6-0.7-1.5-1-2.5-1c-1,0-1.8,0.3-2.4,1C167.5,55.3,167.1,56.3,167,57.6"/>
		<path id="Fill-19" class="st0" d="M180,55.3c0,0.6,0.3,1,0.9,1.3c0.6,0.3,1.6,0.6,3,0.9c1.4,0.3,2.5,0.8,3.1,1.4
			c0.6,0.6,1,1.3,1,2.2c0,1.1-0.4,2.1-1.3,2.8c-0.9,0.7-2.2,1.1-3.9,1.1c-1.7,0-2.9-0.4-3.7-1.1c-0.8-0.8-1.2-1.5-1.2-2.3
			c0-0.2,0.1-0.4,0.3-0.6c0.2-0.2,0.4-0.3,0.6-0.3c0.4,0,0.7,0.3,1,0.8c0.6,1.3,1.7,2,3.2,2c0.9,0,1.6-0.2,2.1-0.6
			c0.5-0.4,0.8-0.9,0.8-1.4c0-0.4-0.2-0.8-0.5-1.2c-0.3-0.4-1.2-0.7-2.5-1.1c-1.4-0.3-2.3-0.7-2.9-0.9c-0.5-0.3-1-0.6-1.4-1.1
			c-0.4-0.5-0.6-1-0.6-1.7c0-0.9,0.4-1.7,1.1-2.5c0.8-0.7,1.9-1.1,3.5-1.1c1.6,0,2.8,0.3,3.5,1c0.8,0.7,1.2,1.3,1.2,2
			c0,0.6-0.3,0.9-0.9,0.9c-0.3,0-0.5-0.1-0.6-0.2c-0.1-0.1-0.3-0.4-0.4-0.7c-0.4-1-1.4-1.4-2.7-1.4c-0.8,0-1.5,0.2-2,0.5
			C180.2,54.4,180,54.8,180,55.3"/>
		<path id="Fill-21" class="st0" d="M191.8,55.3c0,0.6,0.3,1,0.9,1.3c0.6,0.3,1.6,0.6,3,0.9c1.4,0.3,2.5,0.8,3.1,1.4
			c0.6,0.6,1,1.3,1,2.2c0,1.1-0.4,2.1-1.3,2.8c-0.9,0.7-2.2,1.1-3.9,1.1c-1.7,0-2.9-0.4-3.7-1.1c-0.8-0.8-1.2-1.5-1.2-2.3
			c0-0.2,0.1-0.4,0.3-0.6c0.2-0.2,0.4-0.3,0.6-0.3c0.4,0,0.7,0.3,1,0.8c0.6,1.3,1.7,2,3.2,2c0.9,0,1.6-0.2,2.1-0.6
			c0.5-0.4,0.8-0.9,0.8-1.4c0-0.4-0.2-0.8-0.5-1.2c-0.3-0.4-1.2-0.7-2.5-1.1c-1.4-0.3-2.3-0.7-2.9-0.9c-0.5-0.3-1-0.6-1.4-1.1
			c-0.4-0.5-0.6-1-0.6-1.7c0-0.9,0.4-1.7,1.1-2.5c0.8-0.7,1.9-1.1,3.5-1.1c1.6,0,2.8,0.3,3.5,1c0.8,0.7,1.2,1.3,1.2,2
			c0,0.6-0.3,0.9-0.9,0.9c-0.3,0-0.5-0.1-0.6-0.2s-0.3-0.4-0.4-0.7c-0.4-1-1.4-1.4-2.7-1.4c-0.8,0-1.5,0.2-2,0.5
			C192,54.4,191.8,54.8,191.8,55.3"/>
		<path id="Fill-23" class="st1" d="M58.5,10C54.1,3.9,47,0,39,0C25.8,0,15.1,10.6,15,23.7C6.2,27.3,0,35.9,0,46
			c0,13.3,10.7,24,24,24h19.5l0-0.1L58.5,10L58.5,10z"/>
		<path id="Fill-25" class="st2" d="M84.6,23.5c0-5.4-4.3-9.8-9.7-10l-0.3,0h-6.7l-5,20h11.7C80.1,33.5,84.6,29,84.6,23.5"/>
		<path id="Fill-27" class="st2" d="M90.2,36c-3.7,4.6-9.3,7.5-15.6,7.5H60.4L53.8,70H82c9.9,0,18-8.1,18-18C100,45,96,39,90.2,36"
			/>
	</g>
</g>
</svg>
