<svg width="109" height="22" viewBox="0 0 109 22" fill="none" xmlns="http://www.w3.org/2000/svg">
<g clip-path="url(#clip0_804_3562)">
<path d="M9.54277 14.8025C9.5397 14.8038 9.53641 14.8044 9.53309 14.8044C9.52977 14.8044 9.52648 14.8038 9.52341 14.8025L3.6512 11.4531C3.64975 11.4506 3.64898 11.4478 3.64898 11.4449C3.64898 11.4421 3.64975 11.4392 3.6512 11.4368V4.74348C3.64941 4.74111 3.64844 4.73824 3.64844 4.73529C3.64844 4.73234 3.64941 4.72946 3.6512 4.7271L9.52341 1.375H9.54277L15.415 4.7271C15.4164 4.72959 15.4172 4.73241 15.4172 4.73529C15.4172 4.73816 15.4164 4.74099 15.415 4.74348V11.4368C15.4162 11.4393 15.4168 11.4421 15.4168 11.4449C15.4168 11.4478 15.4162 11.4506 15.415 11.4531L9.54277 14.8025Z" fill="#0FA06D"/>
<path d="M19.0681 16.4326H0V20.1996H19.0681V16.4326Z" fill="#0FA06D"/>
<path d="M35.5723 9.85871C35.5723 11.9005 34.9392 13.6803 33.7448 14.9196L35.4976 17.7531H33.3522L32.2906 15.9869C31.3486 16.4561 30.3042 16.6895 29.2494 16.6666C25.1024 16.6666 22.8906 13.6858 22.8906 9.85871C22.8906 6.03164 25.1024 3.05078 29.2494 3.05078C33.3965 3.05078 35.5861 6.03164 35.5861 9.85871H35.5723ZM31.2096 14.2044L28.9757 10.4865H31.0244L32.5339 12.9433C33.0715 12.0092 33.3357 10.946 33.2969 9.87236C33.2969 7.27639 32.0501 5.06805 29.2356 5.06805C26.4211 5.06805 25.1577 7.26274 25.1577 9.85871C25.1577 12.4547 26.4073 14.6603 29.2384 14.6603C29.9245 14.6807 30.604 14.5236 31.2096 14.2044" fill="white"/>
<path d="M36.9648 3.05078H39.1268V5.0544H36.9648V3.05078ZM39.0909 16.4264H36.9842V7.06074H39.0909V16.4264Z" fill="white"/>
<path d="M47.6818 16.4264V10.967C47.6818 9.44105 46.974 8.66853 45.5751 8.66853C44.0656 8.66853 43.1145 9.93786 43.1145 11.3983V16.4264H41.0078V7.06073H43.0399V7.96427H43.4877C44.0407 7.24635 44.9613 6.82324 46.2276 6.82324C48.5941 6.82324 49.7885 8.23997 49.7885 10.5766V16.4264H47.6818Z" fill="white"/>
<path d="M60.3471 7.06055V15.9676C60.3471 18.6182 58.539 20.2724 55.7632 20.2724C53.2446 20.2724 51.5498 19.2242 51.3397 17.2561H53.427C53.6316 18.1924 54.4527 18.5609 55.7383 18.5609C57.5271 18.5609 58.2542 17.469 58.2542 15.8311V15.1951H57.7814C57.3363 15.8393 56.4959 16.3361 55.1356 16.3361C52.5451 16.3361 50.9609 14.3107 50.9609 11.5892C50.9609 8.86763 52.5949 6.83398 55.1467 6.83398C56.5622 6.83398 57.4386 7.37993 57.8671 7.97501H58.315V7.06055H60.3471ZM58.315 11.5892C58.315 9.96771 57.4386 8.58647 55.6692 8.58647C54.0297 8.58647 53.0787 9.81757 53.0787 11.5892C53.0787 13.3607 54.0297 14.57 55.6692 14.57C57.4386 14.57 58.315 13.1888 58.315 11.5892Z" fill="white"/>
<path d="M73.4225 12.4519C72.9857 14.936 71.0173 16.6612 68.0093 16.6612C64.0032 16.6612 61.75 13.8086 61.75 9.85325C61.75 5.89788 64.0115 3.05078 68.0093 3.05078C70.8431 3.05078 72.7811 4.5958 73.2622 6.93245H70.915C70.4864 5.68223 69.5713 5.05713 68.0065 5.05713C65.2667 5.05713 64.0005 7.26274 64.0005 9.85871C64.0005 12.4547 65.2612 14.6603 68.0093 14.6603C69.6515 14.6603 70.7325 13.8414 71.0836 12.4519H73.4225Z" fill="white"/>
<path d="M76.8684 3.05078H74.7617V16.4291H76.8684V3.05078Z" fill="white"/>
<path d="M87.7672 11.7475C87.7672 14.6192 85.9591 16.6801 82.9787 16.6801C79.9984 16.6801 78.1875 14.6055 78.1875 11.7475C78.1875 8.88946 79.9956 6.83398 82.9787 6.83398C85.9618 6.83398 87.7672 8.89765 87.7672 11.7475ZM85.6605 11.7475C85.6605 10.1097 84.8311 8.60284 82.9787 8.60284C81.1264 8.60284 80.2942 10.1097 80.2942 11.7475C80.2942 13.3853 81.1236 14.914 82.9787 14.914C84.8338 14.914 85.6605 13.4235 85.6605 11.7475Z" fill="white"/>
<path d="M91.0598 7.06055V12.52C91.0598 14.0459 91.7676 14.8184 93.1638 14.8184C94.6733 14.8184 95.6243 13.5491 95.6243 12.0887V7.06055H97.731V16.4262H95.699V15.5254H95.2511C94.6982 16.2433 93.7803 16.6664 92.5141 16.6664C90.1475 16.6664 88.9531 15.2497 88.9531 12.9131V7.06055H91.0598Z" fill="white"/>
<path d="M105.887 7.96428H106.335V3.05078H108.441V16.4264H106.409V15.5256H105.962C105.439 16.1698 104.579 16.6666 103.166 16.6666C100.595 16.6666 99.0664 14.532 99.0664 11.734C99.0664 8.93606 100.612 6.82053 103.166 6.82053C104.565 6.82053 105.378 7.30096 105.887 7.96428V7.96428ZM106.376 11.7477C106.376 10.1098 105.594 8.60304 103.75 8.60304C102.016 8.60304 101.159 9.94606 101.159 11.7477C101.159 13.5493 102.016 14.9142 103.75 14.9142C105.594 14.9142 106.376 13.4237 106.376 11.7477Z" fill="white"/>
</g>
<defs>
<clipPath id="clip0_804_3562">
<rect width="108.429" height="22" fill="white"/>
</clipPath>
</defs>
</svg>
