<svg width="246" height="28" viewBox="0 0 246 28" fill="none" xmlns="http://www.w3.org/2000/svg">
<path d="M156.061 12.288H158.209V14.52H156.061V12.288ZM158.209 11.676H156.061V9.336H158.209V11.676ZM156.037 15.132H158.209V18.096C158.209 18.408 158.041 18.576 157.705 18.576C157.417 18.576 157.117 18.564 156.781 18.54L156.925 19.116H157.885C158.509 19.116 158.833 18.84 158.833 18.3V8.736H155.461V14.448C155.437 16.188 155.137 17.616 154.537 18.744L155.017 19.188C155.605 18.132 155.941 16.776 156.037 15.132ZM159.553 13.404V14.052H160.177C160.489 15.156 161.077 16.152 161.941 17.016C161.197 17.652 160.285 18.168 159.181 18.576L159.529 19.128C160.669 18.708 161.641 18.156 162.433 17.46C163.177 18.096 164.113 18.66 165.229 19.164L165.589 18.6C164.509 18.144 163.609 17.628 162.865 17.04C163.657 16.212 164.221 15.204 164.557 14.016V13.404H159.553ZM160.777 14.052H163.921C163.597 15.024 163.081 15.876 162.373 16.608C161.605 15.864 161.065 15.012 160.777 14.052ZM160.369 8.76V10.26C160.369 11.148 160.045 11.832 159.397 12.324L159.841 12.828C160.621 12.204 161.017 11.328 161.017 10.188V9.384H163.309V11.556C163.309 12.132 163.585 12.432 164.137 12.432H165.385V11.808H164.281C164.065 11.808 163.957 11.676 163.957 11.436V8.76H160.369ZM166.729 8.748V9.324H170.425V10.44H167.641V12.996H176.437V10.44H173.665V9.324H177.349V8.748H166.729ZM173.041 10.44H171.049V9.324H173.041V10.44ZM175.813 12.432H173.665V10.992H175.813V12.432ZM173.041 12.432H171.049V10.992H173.041V12.432ZM170.425 12.432H168.265V10.992H170.425V12.432ZM168.109 14.004V14.58H176.017V14.004H168.109ZM166.921 15.624V16.188H171.853V18.108C171.853 18.42 171.661 18.588 171.289 18.588C170.977 18.588 170.641 18.564 170.305 18.54L170.437 19.128H171.505C172.153 19.128 172.477 18.828 172.477 18.24V16.188H177.145V15.624H166.921ZM174.409 16.74L173.977 17.148C175.153 17.808 176.077 18.432 176.773 19.02L177.229 18.576C176.473 17.964 175.537 17.352 174.409 16.74ZM169.885 16.764C169.093 17.424 168.109 18.012 166.933 18.516L167.329 19.02C168.505 18.492 169.513 17.868 170.329 17.148L169.885 16.764ZM188.953 11.184L184.957 11.676C184.885 10.668 184.837 9.516 184.837 8.196H184.189C184.201 9.54 184.249 10.728 184.321 11.76L181.585 12.096L181.681 12.708L184.369 12.384C184.453 13.32 184.573 14.088 184.729 14.712C185.065 16.056 185.569 17.136 186.241 17.952C186.853 18.708 187.453 19.092 188.029 19.092C188.317 19.092 188.569 18.912 188.785 18.564C189.025 18.084 189.217 17.364 189.361 16.38L188.797 16.044C188.629 17.628 188.353 18.432 187.993 18.444C187.561 18.42 187.093 18.084 186.601 17.436C186.049 16.716 185.629 15.744 185.341 14.52C185.197 13.908 185.089 13.164 185.017 12.3L189.061 11.808L188.953 11.184ZM180.169 12.144V19.2H180.817V11.124C181.297 10.296 181.693 9.408 182.005 8.472L181.405 8.196C180.805 10.092 179.821 11.784 178.453 13.296L178.657 13.968C179.209 13.404 179.713 12.792 180.169 12.144ZM186.193 8.316L185.761 8.712C186.553 9.384 187.165 10.02 187.621 10.608L188.065 10.176C187.561 9.552 186.937 8.928 186.193 8.316ZM194.473 12.504H192.241C192.589 11.616 192.841 10.644 193.009 9.6H194.857V8.976H190.825V9.6H192.409C192.097 11.496 191.461 13.176 190.477 14.616L190.813 15.156C191.161 14.652 191.473 14.124 191.761 13.572V18.768H192.373V17.808H193.861V18.54H194.473V12.504ZM192.373 17.196V13.104H193.861V17.196H192.373ZM196.309 10.356L195.661 14.148H200.485C200.485 16.2 200.377 17.436 200.185 17.868C200.005 18.276 199.453 18.492 198.517 18.492C198.301 18.492 197.917 18.468 197.377 18.444L197.569 19.056C197.953 19.08 198.313 19.092 198.673 19.092C199.681 19.092 200.329 18.876 200.641 18.444C200.953 18.012 201.109 16.368 201.109 13.536H199.789L200.485 8.796H195.457V9.42H199.777L199.141 13.536H196.393L196.945 10.416L196.309 10.356ZM195.205 15.864V16.488H199.525V15.864H195.205ZM210.969 9.4043V10.0195H210.887C209.867 10.0195 209.064 10.3203 208.479 10.9219C207.893 11.5195 207.568 12.3516 207.506 13.418C207.74 13.0938 208.039 12.8438 208.402 12.668C208.766 12.4883 209.172 12.3984 209.621 12.3984C210.371 12.3984 210.967 12.6582 211.408 13.1777C211.854 13.6934 212.076 14.3691 212.076 15.2051C212.076 15.7598 211.973 16.2598 211.766 16.7051C211.559 17.1504 211.262 17.498 210.875 17.748C210.488 17.9941 210.047 18.1172 209.551 18.1172C208.734 18.1172 208.07 17.8223 207.559 17.2324C207.047 16.6387 206.791 15.873 206.791 14.9355V14.2324C206.791 12.7051 207.139 11.5234 207.834 10.6875C208.529 9.84766 209.516 9.41992 210.793 9.4043H210.969ZM209.51 13.002C209.064 13.002 208.648 13.1348 208.262 13.4004C207.879 13.6621 207.623 13.9961 207.494 14.4023V15C207.494 15.7422 207.684 16.3477 208.062 16.8164C208.445 17.2852 208.941 17.5195 209.551 17.5195C210.098 17.5195 210.539 17.3027 210.875 16.8691C211.215 16.4355 211.385 15.8887 211.385 15.2285C211.385 14.5566 211.215 14.0176 210.875 13.6113C210.539 13.2051 210.084 13.002 209.51 13.002ZM218.516 11.666C218.516 12.1074 218.387 12.5039 218.129 12.8555C217.871 13.2031 217.531 13.459 217.109 13.623C217.602 13.791 217.996 14.0625 218.293 14.4375C218.59 14.8125 218.738 15.2461 218.738 15.7383C218.738 16.4688 218.49 17.0488 217.994 17.4785C217.498 17.9043 216.842 18.1172 216.025 18.1172C215.201 18.1172 214.541 17.9043 214.045 17.4785C213.553 17.0527 213.307 16.4727 213.307 15.7383C213.307 15.2539 213.449 14.8223 213.734 14.4434C214.02 14.0645 214.41 13.791 214.906 13.623C214.484 13.459 214.148 13.2031 213.898 12.8555C213.648 12.5039 213.523 12.1074 213.523 11.666C213.523 10.959 213.75 10.3965 214.203 9.97852C214.66 9.56055 215.264 9.35156 216.014 9.35156C216.764 9.35156 217.367 9.5625 217.824 9.98438C218.285 10.4062 218.516 10.9668 218.516 11.666ZM218.035 15.7441C218.035 15.2129 217.846 14.7773 217.467 14.4375C217.088 14.0938 216.604 13.9219 216.014 13.9219C215.424 13.9219 214.941 14.0898 214.566 14.4258C214.191 14.7617 214.004 15.2012 214.004 15.7441C214.004 16.2871 214.186 16.7207 214.549 17.0449C214.912 17.3652 215.404 17.5254 216.025 17.5254C216.631 17.5254 217.117 17.3652 217.484 17.0449C217.852 16.7246 218.035 16.291 218.035 15.7441ZM217.812 11.6602C217.812 11.1719 217.643 10.7656 217.303 10.4414C216.967 10.1133 216.537 9.94922 216.014 9.94922C215.482 9.94922 215.051 10.1074 214.719 10.4238C214.391 10.7363 214.227 11.1484 214.227 11.6602C214.227 12.1602 214.391 12.5625 214.719 12.8672C215.051 13.1719 215.484 13.3242 216.02 13.3242C216.547 13.3242 216.977 13.1719 217.309 12.8672C217.645 12.5586 217.812 12.1562 217.812 11.6602ZM225.172 11.666C225.172 12.1074 225.043 12.5039 224.785 12.8555C224.527 13.2031 224.188 13.459 223.766 13.623C224.258 13.791 224.652 14.0625 224.949 14.4375C225.246 14.8125 225.395 15.2461 225.395 15.7383C225.395 16.4688 225.146 17.0488 224.65 17.4785C224.154 17.9043 223.498 18.1172 222.682 18.1172C221.857 18.1172 221.197 17.9043 220.701 17.4785C220.209 17.0527 219.963 16.4727 219.963 15.7383C219.963 15.2539 220.105 14.8223 220.391 14.4434C220.676 14.0645 221.066 13.791 221.562 13.623C221.141 13.459 220.805 13.2031 220.555 12.8555C220.305 12.5039 220.18 12.1074 220.18 11.666C220.18 10.959 220.406 10.3965 220.859 9.97852C221.316 9.56055 221.92 9.35156 222.67 9.35156C223.42 9.35156 224.023 9.5625 224.48 9.98438C224.941 10.4062 225.172 10.9668 225.172 11.666ZM224.691 15.7441C224.691 15.2129 224.502 14.7773 224.123 14.4375C223.744 14.0938 223.26 13.9219 222.67 13.9219C222.08 13.9219 221.598 14.0898 221.223 14.4258C220.848 14.7617 220.66 15.2012 220.66 15.7441C220.66 16.2871 220.842 16.7207 221.205 17.0449C221.568 17.3652 222.061 17.5254 222.682 17.5254C223.287 17.5254 223.773 17.3652 224.141 17.0449C224.508 16.7246 224.691 16.291 224.691 15.7441ZM224.469 11.6602C224.469 11.1719 224.299 10.7656 223.959 10.4414C223.623 10.1133 223.193 9.94922 222.67 9.94922C222.139 9.94922 221.707 10.1074 221.375 10.4238C221.047 10.7363 220.883 11.1484 220.883 11.6602C220.883 12.1602 221.047 12.5625 221.375 12.8672C221.707 13.1719 222.141 13.3242 222.676 13.3242C223.203 13.3242 223.633 13.1719 223.965 12.8672C224.301 12.5586 224.469 12.1562 224.469 11.6602ZM228.359 13.3535H229.086C229.488 13.3535 229.84 13.2832 230.141 13.1426C230.441 12.998 230.67 12.8027 230.826 12.5566C230.986 12.3066 231.066 12.0195 231.066 11.6953C231.066 11.1484 230.912 10.7207 230.604 10.4121C230.295 10.1035 229.852 9.94922 229.273 9.94922C228.727 9.94922 228.277 10.1113 227.926 10.4355C227.578 10.7559 227.404 11.1797 227.404 11.707H226.701C226.701 11.2656 226.812 10.8633 227.035 10.5C227.258 10.1328 227.566 9.84961 227.961 9.65039C228.355 9.45117 228.793 9.35156 229.273 9.35156C230.047 9.35156 230.656 9.5625 231.102 9.98438C231.547 10.4062 231.77 10.9844 231.77 11.7188C231.77 12.1289 231.639 12.5078 231.377 12.8555C231.119 13.1992 230.764 13.457 230.311 13.6289C230.842 13.7773 231.244 14.0332 231.518 14.3965C231.791 14.7559 231.928 15.1855 231.928 15.6855C231.928 16.416 231.689 17.0039 231.213 17.4492C230.736 17.8945 230.1 18.1172 229.303 18.1172C228.795 18.1172 228.328 18.0156 227.902 17.8125C227.48 17.6094 227.152 17.3262 226.918 16.9629C226.688 16.5957 226.572 16.1699 226.572 15.6855H227.275C227.275 16.2285 227.465 16.6719 227.844 17.0156C228.223 17.3555 228.709 17.5254 229.303 17.5254C229.908 17.5254 230.379 17.3711 230.715 17.0625C231.055 16.75 231.225 16.2988 231.225 15.709C231.225 15.1387 231.041 14.7031 230.674 14.4023C230.311 14.1016 229.773 13.9512 229.062 13.9512H228.359V13.3535ZM236.721 18H236.018V10.3125L233.697 11.1738V10.5176L236.604 9.43945H236.721V18ZM244.25 9.4043V10.0195H244.168C243.148 10.0195 242.346 10.3203 241.76 10.9219C241.174 11.5195 240.85 12.3516 240.787 13.418C241.021 13.0938 241.32 12.8438 241.684 12.668C242.047 12.4883 242.453 12.3984 242.902 12.3984C243.652 12.3984 244.248 12.6582 244.689 13.1777C245.135 13.6934 245.357 14.3691 245.357 15.2051C245.357 15.7598 245.254 16.2598 245.047 16.7051C244.84 17.1504 244.543 17.498 244.156 17.748C243.77 17.9941 243.328 18.1172 242.832 18.1172C242.016 18.1172 241.352 17.8223 240.84 17.2324C240.328 16.6387 240.072 15.873 240.072 14.9355V14.2324C240.072 12.7051 240.42 11.5234 241.115 10.6875C241.811 9.84766 242.797 9.41992 244.074 9.4043H244.25ZM242.791 13.002C242.346 13.002 241.93 13.1348 241.543 13.4004C241.16 13.6621 240.904 13.9961 240.775 14.4023V15C240.775 15.7422 240.965 16.3477 241.344 16.8164C241.727 17.2852 242.223 17.5195 242.832 17.5195C243.379 17.5195 243.82 17.3027 244.156 16.8691C244.496 16.4355 244.666 15.8887 244.666 15.2285C244.666 14.5566 244.496 14.0176 244.156 13.6113C243.82 13.2051 243.365 13.002 242.791 13.002Z" fill="white"/>
<line opacity="0.15" x1="146.5" y1="8" x2="146.5" y2="20" stroke="white"/>
<g clip-path="url(#clip0)">
<path d="M12.1464 18.8396C12.1425 18.8412 12.1383 18.842 12.1341 18.842C12.1299 18.842 12.1257 18.8412 12.1218 18.8396L4.64805 14.5767C4.6462 14.5735 4.64522 14.57 4.64522 14.5663C4.64522 14.5626 4.6462 14.559 4.64805 14.5559V6.03715C4.64577 6.03415 4.64453 6.03049 4.64453 6.02673C4.64453 6.02297 4.64577 6.01931 4.64805 6.01631L12.1218 1.75H12.1464L19.6201 6.01631C19.622 6.01948 19.623 6.02307 19.623 6.02673C19.623 6.03039 19.622 6.03398 19.6201 6.03715V14.5559C19.6217 14.5591 19.6225 14.5627 19.6225 14.5663C19.6225 14.5699 19.6217 14.5735 19.6201 14.5767L12.1464 18.8396Z" fill="#0FA06D"/>
<path d="M24.2685 20.9138H0V25.7082H24.2685V20.9138Z" fill="#0FA06D"/>
<path d="M45.2751 12.5477C45.2751 15.1464 44.4693 17.4116 42.9492 18.9888L45.18 22.5951H42.4495L41.0984 20.3473C39.8994 20.9444 38.5703 21.2414 37.2278 21.2123C31.9497 21.2123 29.1348 17.4185 29.1348 12.5477C29.1348 7.67687 31.9497 3.88306 37.2278 3.88306C42.5058 3.88306 45.2926 7.67687 45.2926 12.5477H45.2751ZM39.7225 18.0786L36.8794 13.3468H39.4868L41.408 16.4735C42.0922 15.2847 42.4285 13.9316 42.3792 12.5651C42.3792 9.26111 40.7922 6.45048 37.2102 6.45048C33.6281 6.45048 32.0201 9.24373 32.0201 12.5477C32.0201 15.8516 33.6106 18.6588 37.2137 18.6588C38.0869 18.6848 38.9518 18.4848 39.7225 18.0786Z" fill="white"/>
<path d="M47.0449 3.88306H49.7966V6.43311H47.0449V3.88306ZM49.7508 20.9066H47.0696V8.98665H49.7508V20.9066Z" fill="white"/>
<path d="M60.6836 20.9068V13.9584C60.6836 12.0163 59.7828 11.0331 58.0023 11.0331C56.0811 11.0331 54.8707 12.6486 54.8707 14.5073V20.9068H52.1895V8.98683H54.7757V10.1368H55.3457C56.0495 9.22307 57.2212 8.68457 58.8328 8.68457C61.8448 8.68457 63.3649 10.4877 63.3649 13.4616V20.9068H60.6836Z" fill="white"/>
<path d="M76.8063 8.98684V20.3231C76.8063 23.6966 74.5051 25.8019 70.9723 25.8019C67.7668 25.8019 65.6098 24.4678 65.3424 21.963H67.999C68.2594 23.1546 69.3045 23.6236 70.9407 23.6236C73.2173 23.6236 74.1427 22.2339 74.1427 20.1494V19.3399H73.541C72.9745 20.1598 71.9048 20.7921 70.1736 20.7921C66.8766 20.7921 64.8604 18.2143 64.8604 14.7505C64.8604 11.2868 66.9399 8.69849 70.1877 8.69849C71.9892 8.69849 73.1047 9.39332 73.6501 10.1507H74.2201V8.98684H76.8063ZM74.2201 14.7505C74.2201 12.6869 73.1047 10.9289 70.8527 10.9289C68.7661 10.9289 67.5557 12.4958 67.5557 14.7505C67.5557 17.0053 68.7661 18.5443 70.8527 18.5443C73.1047 18.5443 74.2201 16.7864 74.2201 14.7505Z" fill="white"/>
<path d="M93.4497 15.8482C92.8937 19.0097 90.3884 21.2054 86.5601 21.2054C81.4615 21.2054 78.5938 17.5748 78.5938 12.5407C78.5938 7.50664 81.472 3.88306 86.5601 3.88306C90.1668 3.88306 92.6334 5.84945 93.2456 8.82336H90.2582C89.7128 7.23218 88.5482 6.43659 86.5566 6.43659C83.0695 6.43659 81.458 9.24373 81.458 12.5477C81.458 15.8516 83.0625 18.6588 86.5601 18.6588C88.6502 18.6588 90.026 17.6165 90.4729 15.8482H93.4497Z" fill="white"/>
<path d="M97.8341 3.88306H95.1528V20.9101H97.8341V3.88306Z" fill="white"/>
<path d="M111.704 14.952C111.704 18.6069 109.403 21.2299 105.61 21.2299C101.817 21.2299 99.5122 18.5895 99.5122 14.952C99.5122 11.3146 101.813 8.69849 105.61 8.69849C109.407 8.69849 111.704 11.325 111.704 14.952ZM109.023 14.952C109.023 12.8675 107.968 10.9498 105.61 10.9498C103.253 10.9498 102.193 12.8675 102.193 14.952C102.193 17.0365 103.249 18.9821 105.61 18.9821C107.971 18.9821 109.023 17.0852 109.023 14.952Z" fill="white"/>
<path d="M115.899 8.98657V15.935C115.899 17.877 116.8 18.8602 118.577 18.8602C120.498 18.8602 121.708 17.2447 121.708 15.386V8.98657H124.39V20.9065H121.803V19.76H121.233C120.53 20.6738 119.361 21.2123 117.75 21.2123C114.738 21.2123 113.218 19.4091 113.218 16.4352V8.98657H115.899Z" fill="white"/>
<path d="M134.766 10.1366H135.336V3.88306H138.017V20.9066H135.431V19.7601H134.861C134.196 20.58 133.102 21.2123 131.304 21.2123C128.031 21.2123 126.085 18.4955 126.085 14.9345C126.085 11.3734 128.052 8.68091 131.304 8.68091C133.084 8.68091 134.119 9.29237 134.766 10.1366ZM135.389 14.9518C135.389 12.8673 134.393 10.9496 132.046 10.9496C129.84 10.9496 128.749 12.6589 128.749 14.9518C128.749 17.2448 129.84 18.9819 132.046 18.9819C134.393 18.9819 135.389 17.085 135.389 14.9518Z" fill="white"/>
</g>
<defs>
<clipPath id="clip0">
<rect width="138" height="28" fill="white"/>
</clipPath>
</defs>
</svg>
